<svg width="92" height="67" viewBox="0 0 92 67" fill="none" xmlns="http://www.w3.org/2000/svg">
<path d="M2 44.5622L18.5 44.5" stroke="black" stroke-width="3" stroke-linecap="round"/>
<path d="M20 38.5L23 53.5" stroke="black" stroke-width="3" stroke-linecap="round"/>
<path d="M33.5 49L39 2" stroke="black" stroke-width="3" stroke-linecap="round"/>
<path d="M39 2L41 58.5" stroke="black" stroke-width="3" stroke-linecap="round"/>
<path d="M45 54.5H54" stroke="black" stroke-width="3" stroke-linecap="round"/>
<path d="M54 54.5L57.5 65.5" stroke="black" stroke-width="3" stroke-linecap="round"/>
<path d="M57.5032 65.4435L61.5 25.5" stroke="black" stroke-width="3" stroke-linecap="round"/>
<path d="M61.5 25.5L67.4877 52.3899" stroke="black" stroke-width="3" stroke-linecap="round"/>
<path d="M67.5081 52.4106L71 31.5" stroke="black" stroke-width="3" stroke-linecap="round"/>
<path d="M71 31.5L74 45" stroke="black" stroke-width="3" stroke-linecap="round"/>
<path d="M74 45H90.5" stroke="black" stroke-width="3" stroke-linecap="round"/>
<path d="M20 38.5L18.5 44.5" stroke="black" stroke-width="3" stroke-linecap="round"/>
<path d="M22.9913 53.4965L24.8004 48.9965" stroke="black" stroke-width="3" stroke-linecap="round"/>
<path d="M24.872 49H33.472" stroke="black" stroke-width="3" stroke-linecap="round"/>
<path d="M41 58.5L44 51.5" stroke="black" stroke-width="3" stroke-linecap="round"/>
<path d="M44 51.5L45 54.5" stroke="black" stroke-width="3" stroke-linecap="round"/>
</svg>
