<svg width="91" height="66" viewBox="0 0 91 66" fill="none" xmlns="http://www.w3.org/2000/svg">
<path d="M1 43.5622L17.5 43.5" stroke="black" stroke-width="1.5" stroke-linecap="round"/>
<path d="M19 37.5L22 52.5" stroke="black" stroke-width="1.5" stroke-linecap="round"/>
<path d="M32.5 48L38 0.999999" stroke="black" stroke-width="1.5" stroke-linecap="round"/>
<path d="M38 1L40 57.5" stroke="black" stroke-width="1.5" stroke-linecap="round"/>
<path d="M44 53.5H53" stroke="black" stroke-width="1.5" stroke-linecap="round"/>
<path d="M53 53.5L56.5 64.5" stroke="black" stroke-width="1.5" stroke-linecap="round"/>
<path d="M56.5032 64.4435L60.5 24.5" stroke="black" stroke-width="1.5" stroke-linecap="round"/>
<path d="M60.5 24.5L66.4877 51.3899" stroke="black" stroke-width="1.5" stroke-linecap="round"/>
<path d="M66.5081 51.4106L70 30.5" stroke="black" stroke-width="1.5" stroke-linecap="round"/>
<path d="M70 30.5L73 44" stroke="black" stroke-width="1.5" stroke-linecap="round"/>
<path d="M73 44H89.5" stroke="black" stroke-width="1.5" stroke-linecap="round"/>
<path d="M19 37.5L17.5 43.5" stroke="black" stroke-width="1.5" stroke-linecap="round"/>
<path d="M21.9913 52.4965L23.8004 47.9965" stroke="black" stroke-width="1.5" stroke-linecap="round"/>
<path d="M23.872 48H32.472" stroke="black" stroke-width="1.5" stroke-linecap="round"/>
<path d="M40 57.5L43 50.5" stroke="black" stroke-width="1.5" stroke-linecap="round"/>
<path d="M43 50.5L44 53.5" stroke="black" stroke-width="1.5" stroke-linecap="round"/>
</svg>
